<?xml version="1.0" standalone="no"?>
<!DOCTYPE svg PUBLIC "-//W3C//DTD SVG 20010904//EN"
 "http://www.w3.org/TR/2001/REC-SVG-20010904/DTD/svg10.dtd">
<svg version="1.0" xmlns="http://www.w3.org/2000/svg"
 width="128.000000pt" height="128.000000pt" viewBox="0 0 128.000000 128.000000"
 preserveAspectRatio="xMidYMid meet">
<metadata>
Created by potrace 1.10, written by Peter Selinger 2001-2011
</metadata>
<g transform="translate(0.000000,128.000000) scale(0.100000,-0.100000)"
fill="#000000" stroke="none">
<path d="M130 635 l0 -515 515 0 515 0 0 515 0 515 -515 0 -515 0 0 -515z
m990 0 l0 -475 -475 0 -475 0 0 475 0 475 475 0 475 0 0 -475z"/>
<path d="M529 825 c0 0 -2 -11 -4 -25 l-3 -25 94 3 93 3 -85 -138 c-47 -76
-95 -151 -106 -166 -11 -16 -18 -29 -16 -30 1 -1 67 -1 146 1 133 3 142 4 142
23 0 18 -8 19 -104 19 l-105 0 85 138 c47 75 94 149 105 164 10 15 19 28 19
30 0 2 -58 3 -130 3 -71 0 -130 0 -131 0z"/>
</g>
</svg>
